<svg xmlns="http://www.w3.org/2000/svg" width="960" height="600" viewBox="0 0 960 600" role="img" aria-label="Tia số">
  <defs>
    <linearGradient id="bg" x1="0" y1="0" x2="1" y2="1">
      <stop offset="0" stop-color="#fff7ed"/>
      <stop offset="0.55" stop-color="#eef2ff"/>
      <stop offset="1" stop-color="#ecfeff"/>
    </linearGradient>
    <filter id="shadow" x="-20%" y="-20%" width="140%" height="140%">
      <feDropShadow dx="0" dy="12" stdDeviation="14" flood-color="#0f172a" flood-opacity="0.14"/>
    </filter>
  </defs>
  <rect width="960" height="600" fill="url(#bg)"/>
  <circle cx="116" cy="106" r="64" fill="#2563eb" opacity="0.12"/>
  <circle cx="833" cy="505" r="88" fill="#10b981" opacity="0.10"/>
  <rect x="78" y="70" width="804" height="460" rx="34" fill="#ffffff" opacity="0.88" filter="url(#shadow)"/>
  <text x="112" y="124" font-family="Inter, Arial, sans-serif" font-size="34" font-weight="800" fill="#0f172a">Tia số</text>
  <g transform="translate(130 240)"><line x1="0" y1="0" x2="700" y2="0" stroke="#2563eb" stroke-width="8" stroke-linecap="round"/><path d="M700 0 l-28 -22 m28 22 l-28 22" stroke="#2563eb" stroke-width="8" stroke-linecap="round"/><g font-size="28" font-weight="800" fill="#334155"><line x1="0" y1="-28" x2="0" y2="28" stroke="#64748b" stroke-width="4"/><text x="-8" y="72">0</text><line x1="90" y1="-28" x2="90" y2="28" stroke="#64748b" stroke-width="4"/><text x="82" y="72">1</text><line x1="180" y1="-28" x2="180" y2="28" stroke="#64748b" stroke-width="4"/><text x="172" y="72">2</text><line x1="270" y1="-28" x2="270" y2="28" stroke="#64748b" stroke-width="4"/><text x="262" y="72">3</text><line x1="360" y1="-28" x2="360" y2="28" stroke="#64748b" stroke-width="4"/><text x="352" y="72">4</text><line x1="450" y1="-28" x2="450" y2="28" stroke="#64748b" stroke-width="4"/><text x="442" y="72">5</text><line x1="540" y1="-28" x2="540" y2="28" stroke="#64748b" stroke-width="4"/><text x="532" y="72">6</text><line x1="630" y1="-28" x2="630" y2="28" stroke="#64748b" stroke-width="4"/><text x="622" y="72">7</text></g><text x="0" y="150" font-size="30" font-weight="700" fill="#475569">Số bên phải lớn hơn, nhảy từng bước.</text></g>
</svg>