<svg xmlns="http://www.w3.org/2000/svg" width="960" height="600" viewBox="0 0 960 600" role="img" aria-label="Qua 10 không sợ">
  <defs>
    <linearGradient id="bg" x1="0" y1="0" x2="1" y2="1">
      <stop offset="0" stop-color="#fff7ed"/>
      <stop offset="0.55" stop-color="#eef2ff"/>
      <stop offset="1" stop-color="#ecfeff"/>
    </linearGradient>
    <filter id="shadow" x="-20%" y="-20%" width="140%" height="140%">
      <feDropShadow dx="0" dy="12" stdDeviation="14" flood-color="#0f172a" flood-opacity="0.14"/>
    </filter>
  </defs>
  <rect width="960" height="600" fill="url(#bg)"/>
  <circle cx="116" cy="106" r="64" fill="#6366f1" opacity="0.12"/>
  <circle cx="833" cy="505" r="88" fill="#10b981" opacity="0.10"/>
  <rect x="78" y="70" width="804" height="460" rx="34" fill="#ffffff" opacity="0.88" filter="url(#shadow)"/>
  <text x="112" y="124" font-family="Inter, Arial, sans-serif" font-size="34" font-weight="800" fill="#0f172a">Qua 10 không sợ</text>
  
    <g transform="translate(150 180)">
      <rect x="0" y="0" width="42" height="42" rx="8" fill="#818cf8" stroke="#6366f1"/><rect x="52" y="0" width="42" height="42" rx="8" fill="#818cf8" stroke="#6366f1"/><rect x="104" y="0" width="42" height="42" rx="8" fill="#818cf8" stroke="#6366f1"/><rect x="156" y="0" width="42" height="42" rx="8" fill="#818cf8" stroke="#6366f1"/><rect x="208" y="0" width="42" height="42" rx="8" fill="#818cf8" stroke="#6366f1"/><rect x="260" y="0" width="42" height="42" rx="8" fill="#818cf8" stroke="#6366f1"/><rect x="312" y="0" width="42" height="42" rx="8" fill="#818cf8" stroke="#6366f1"/><rect x="364" y="0" width="42" height="42" rx="8" fill="#818cf8" stroke="#6366f1"/><rect x="416" y="0" width="42" height="42" rx="8" fill="#e0e7ff" stroke="#6366f1"/><rect x="468" y="0" width="42" height="42" rx="8" fill="#e0e7ff" stroke="#6366f1"/>
      <rect x="0" y="62" width="42" height="42" rx="8" fill="#fbbf24" stroke="#f59e0b"/><rect x="52" y="62" width="42" height="42" rx="8" fill="#fbbf24" stroke="#f59e0b"/><rect x="104" y="62" width="42" height="42" rx="8" fill="#fbbf24" stroke="#f59e0b"/><rect x="156" y="62" width="42" height="42" rx="8" fill="#fbbf24" stroke="#f59e0b"/><rect x="208" y="62" width="42" height="42" rx="8" fill="#fbbf24" stroke="#f59e0b"/><rect x="260" y="62" width="42" height="42" rx="8" fill="#fef3c7" stroke="#f59e0b"/><rect x="312" y="62" width="42" height="42" rx="8" fill="#fef3c7" stroke="#f59e0b"/><rect x="364" y="62" width="42" height="42" rx="8" fill="#fef3c7" stroke="#f59e0b"/><rect x="416" y="62" width="42" height="42" rx="8" fill="#fef3c7" stroke="#f59e0b"/><rect x="468" y="62" width="42" height="42" rx="8" fill="#fef3c7" stroke="#f59e0b"/>
      <path d="M414 42 C438 82 438 82 414 124" fill="none" stroke="#ef4444" stroke-width="5" stroke-linecap="round"/>
      <text x="0" y="170" font-size="30" font-weight="700" fill="#475569">Tách số để đủ 10, phần còn lại cộng tiếp.</text>
    </g>
</svg>