<svg xmlns="http://www.w3.org/2000/svg" width="960" height="600" viewBox="0 0 960 600" role="img" aria-label="Cộng trừ trong 10">
  <defs>
    <linearGradient id="bg" x1="0" y1="0" x2="1" y2="1">
      <stop offset="0" stop-color="#fff7ed"/>
      <stop offset="0.55" stop-color="#eef2ff"/>
      <stop offset="1" stop-color="#ecfeff"/>
    </linearGradient>
    <filter id="shadow" x="-20%" y="-20%" width="140%" height="140%">
      <feDropShadow dx="0" dy="12" stdDeviation="14" flood-color="#0f172a" flood-opacity="0.14"/>
    </filter>
  </defs>
  <rect width="960" height="600" fill="url(#bg)"/>
  <circle cx="116" cy="106" r="64" fill="#3b82f6" opacity="0.12"/>
  <circle cx="833" cy="505" r="88" fill="#10b981" opacity="0.10"/>
  <rect x="78" y="70" width="804" height="460" rx="34" fill="#ffffff" opacity="0.88" filter="url(#shadow)"/>
  <text x="112" y="124" font-family="Inter, Arial, sans-serif" font-size="34" font-weight="800" fill="#0f172a">Cộng trừ trong 10</text>
  
    <g transform="translate(150 185)">
      <rect x="0" y="0" width="44" height="44" rx="10" fill="#60a5fa"/><rect x="58" y="0" width="44" height="44" rx="10" fill="#60a5fa"/><rect x="116" y="0" width="44" height="44" rx="10" fill="#60a5fa"/><rect x="174" y="0" width="44" height="44" rx="10" fill="#60a5fa"/><rect x="232" y="0" width="44" height="44" rx="10" fill="#60a5fa"/><rect x="290" y="0" width="44" height="44" rx="10" fill="#60a5fa"/>
      <text x="384" y="36" font-size="46" font-weight="800" fill="#334155">+</text>
      <rect x="454" y="0" width="44" height="44" rx="10" fill="#f59e0b"/><rect x="512" y="0" width="44" height="44" rx="10" fill="#f59e0b"/><rect x="570" y="0" width="44" height="44" rx="10" fill="#f59e0b"/><rect x="628" y="0" width="44" height="44" rx="10" fill="#f59e0b"/>
      <text x="0" y="128" font-size="30" font-weight="700" fill="#475569">Đếm thêm, rồi kiểm tra bằng phép ngược.</text>
    </g>
</svg>