<svg xmlns="http://www.w3.org/2000/svg" width="960" height="600" viewBox="0 0 960 600" role="img" aria-label="Chẵn và lẻ">
  <defs>
    <linearGradient id="bg" x1="0" y1="0" x2="1" y2="1">
      <stop offset="0" stop-color="#fff7ed"/>
      <stop offset="0.55" stop-color="#eef2ff"/>
      <stop offset="1" stop-color="#ecfeff"/>
    </linearGradient>
    <filter id="shadow" x="-20%" y="-20%" width="140%" height="140%">
      <feDropShadow dx="0" dy="12" stdDeviation="14" flood-color="#0f172a" flood-opacity="0.14"/>
    </filter>
  </defs>
  <rect width="960" height="600" fill="url(#bg)"/>
  <circle cx="116" cy="106" r="64" fill="#64748b" opacity="0.12"/>
  <circle cx="833" cy="505" r="88" fill="#10b981" opacity="0.10"/>
  <rect x="78" y="70" width="804" height="460" rx="34" fill="#ffffff" opacity="0.88" filter="url(#shadow)"/>
  <text x="112" y="124" font-family="Inter, Arial, sans-serif" font-size="34" font-weight="800" fill="#0f172a">Chẵn và lẻ</text>
  
    <g transform="translate(150 170)">
      <circle cx="80" cy="60" r="26" fill="#60a5fa"/><circle cx="160" cy="60" r="26" fill="#60a5fa"/><circle cx="240" cy="60" r="26" fill="#60a5fa"/><circle cx="320" cy="60" r="26" fill="#60a5fa"/><circle cx="80" cy="142" r="26" fill="#60a5fa"/><circle cx="160" cy="142" r="26" fill="#60a5fa"/><circle cx="240" cy="142" r="26" fill="#60a5fa"/><circle cx="320" cy="142" r="26" fill="#60a5fa"/>
      <circle cx="500" cy="60" r="26" fill="#f97316"/><circle cx="580" cy="60" r="26" fill="#f97316"/><circle cx="660" cy="60" r="26" fill="#f97316"/><circle cx="740" cy="60" r="26" fill="#f97316"/><circle cx="500" cy="142" r="26" fill="#f97316"/><circle cx="580" cy="142" r="26" fill="#f97316"/><circle cx="660" cy="142" r="26" fill="#f97316"/>
      <text x="36" y="230" font-size="28" font-weight="800" fill="#2563eb">8 ghép cặp hết</text>
      <text x="470" y="230" font-size="28" font-weight="800" fill="#c2410c">7 còn dư 1</text>
    </g>
</svg>