<svg xmlns="http://www.w3.org/2000/svg" width="960" height="600" viewBox="0 0 960 600" role="img" aria-label="Chục và đơn vị">
  <defs>
    <linearGradient id="bg" x1="0" y1="0" x2="1" y2="1">
      <stop offset="0" stop-color="#fff7ed"/>
      <stop offset="0.55" stop-color="#eef2ff"/>
      <stop offset="1" stop-color="#ecfeff"/>
    </linearGradient>
    <filter id="shadow" x="-20%" y="-20%" width="140%" height="140%">
      <feDropShadow dx="0" dy="12" stdDeviation="14" flood-color="#0f172a" flood-opacity="0.14"/>
    </filter>
  </defs>
  <rect width="960" height="600" fill="url(#bg)"/>
  <circle cx="116" cy="106" r="64" fill="#0ea5e9" opacity="0.12"/>
  <circle cx="833" cy="505" r="88" fill="#10b981" opacity="0.10"/>
  <rect x="78" y="70" width="804" height="460" rx="34" fill="#ffffff" opacity="0.88" filter="url(#shadow)"/>
  <text x="112" y="124" font-family="Inter, Arial, sans-serif" font-size="34" font-weight="800" fill="#0f172a">Chục và đơn vị</text>
  
    <g transform="translate(160 170)">
      <rect x="0" y="0" width="46" height="240" rx="18" fill="#0ea5e9"/><rect x="70" y="0" width="46" height="240" rx="18" fill="#0ea5e9"/><rect x="140" y="0" width="46" height="240" rx="18" fill="#0ea5e9"/>
      <rect x="280" y="0" width="42" height="42" rx="10" fill="#f97316"/><rect x="336" y="0" width="42" height="42" rx="10" fill="#f97316"/><rect x="392" y="0" width="42" height="42" rx="10" fill="#f97316"/><rect x="448" y="0" width="42" height="42" rx="10" fill="#f97316"/><rect x="280" y="58" width="42" height="42" rx="10" fill="#f97316"/><rect x="336" y="58" width="42" height="42" rx="10" fill="#f97316"/><rect x="392" y="58" width="42" height="42" rx="10" fill="#f97316"/>
      <text x="0" y="306" font-size="30" font-weight="700" fill="#475569">3 chục và 7 đơn vị tạo thành 37.</text>
    </g>
</svg>