<svg xmlns="http://www.w3.org/2000/svg" width="960" height="600" viewBox="0 0 960 600" role="img" aria-label="Đo độ dài">
  <defs>
    <linearGradient id="bg" x1="0" y1="0" x2="1" y2="1">
      <stop offset="0" stop-color="#fff7ed"/>
      <stop offset="0.55" stop-color="#eef2ff"/>
      <stop offset="1" stop-color="#ecfeff"/>
    </linearGradient>
    <filter id="shadow" x="-20%" y="-20%" width="140%" height="140%">
      <feDropShadow dx="0" dy="12" stdDeviation="14" flood-color="#0f172a" flood-opacity="0.14"/>
    </filter>
  </defs>
  <rect width="960" height="600" fill="url(#bg)"/>
  <circle cx="116" cy="106" r="64" fill="#ca8a04" opacity="0.12"/>
  <circle cx="833" cy="505" r="88" fill="#10b981" opacity="0.10"/>
  <rect x="78" y="70" width="804" height="460" rx="34" fill="#ffffff" opacity="0.88" filter="url(#shadow)"/>
  <text x="112" y="124" font-family="Inter, Arial, sans-serif" font-size="34" font-weight="800" fill="#0f172a">Đo độ dài</text>
  
    <g transform="translate(150 220)">
      <rect x="0" y="0" width="650" height="92" rx="18" fill="#fef3c7" stroke="#ca8a04" stroke-width="5"/>
      <line x1="35" y1="0" x2="35" y2="60" stroke="#92400e" stroke-width="4"/><line x1="80" y1="0" x2="80" y2="36" stroke="#92400e" stroke-width="4"/><line x1="125" y1="0" x2="125" y2="60" stroke="#92400e" stroke-width="4"/><line x1="170" y1="0" x2="170" y2="36" stroke="#92400e" stroke-width="4"/><line x1="215" y1="0" x2="215" y2="60" stroke="#92400e" stroke-width="4"/><line x1="260" y1="0" x2="260" y2="36" stroke="#92400e" stroke-width="4"/><line x1="305" y1="0" x2="305" y2="60" stroke="#92400e" stroke-width="4"/><line x1="350" y1="0" x2="350" y2="36" stroke="#92400e" stroke-width="4"/><line x1="395" y1="0" x2="395" y2="60" stroke="#92400e" stroke-width="4"/><line x1="440" y1="0" x2="440" y2="36" stroke="#92400e" stroke-width="4"/><line x1="485" y1="0" x2="485" y2="60" stroke="#92400e" stroke-width="4"/><line x1="530" y1="0" x2="530" y2="36" stroke="#92400e" stroke-width="4"/><line x1="575" y1="0" x2="575" y2="60" stroke="#92400e" stroke-width="4"/><line x1="620" y1="0" x2="620" y2="36" stroke="#92400e" stroke-width="4"/>
      <text x="0" y="172" font-size="30" font-weight="700" fill="#475569">Đặt đầu vật ở vạch 0 rồi đọc vạch cuối.</text>
    </g>
</svg>