<svg xmlns="http://www.w3.org/2000/svg" width="960" height="600" viewBox="0 0 960 600" role="img" aria-label="Khối hình 3D">
  <defs>
    <linearGradient id="bg" x1="0" y1="0" x2="1" y2="1">
      <stop offset="0" stop-color="#fff7ed"/>
      <stop offset="0.55" stop-color="#eef2ff"/>
      <stop offset="1" stop-color="#ecfeff"/>
    </linearGradient>
    <filter id="shadow" x="-20%" y="-20%" width="140%" height="140%">
      <feDropShadow dx="0" dy="12" stdDeviation="14" flood-color="#0f172a" flood-opacity="0.14"/>
    </filter>
  </defs>
  <rect width="960" height="600" fill="url(#bg)"/>
  <circle cx="116" cy="106" r="64" fill="#14b8a6" opacity="0.12"/>
  <circle cx="833" cy="505" r="88" fill="#10b981" opacity="0.10"/>
  <rect x="78" y="70" width="804" height="460" rx="34" fill="#ffffff" opacity="0.88" filter="url(#shadow)"/>
  <text x="112" y="124" font-family="Inter, Arial, sans-serif" font-size="34" font-weight="800" fill="#0f172a">Khối hình 3D</text>
  
    <g transform="translate(145 170)" stroke="#1e293b" stroke-width="5">
      <rect x="16" y="76" width="120" height="120" fill="#60a5fa"/>
      <path d="M16 76 L58 30 H178 L136 76 Z M136 76 L178 30 V150 L136 196 Z" fill="#93c5fd"/>
      <ellipse cx="332" cy="76" rx="70" ry="28" fill="#fbbf24"/>
      <rect x="262" y="76" width="140" height="130" fill="#fde68a"/>
      <ellipse cx="332" cy="206" rx="70" ry="28" fill="#fbbf24"/>
      <circle cx="560" cy="142" r="74" fill="#34d399"/>
      <text x="0" y="300" font-size="30" font-weight="700" stroke="none" fill="#475569">Mặt phẳng, mặt cong, lăn được hay không?</text>
    </g>
</svg>