<svg xmlns="http://www.w3.org/2000/svg" width="960" height="560" viewBox="0 0 960 560" role="img" aria-label="Body health learning visual">
  <defs>
    <linearGradient id="bg" x1="0" y1="0" x2="1" y2="1">
      <stop offset="0" stop-color="#eef2ff"/>
      <stop offset="0.52" stop-color="#ecfeff"/>
      <stop offset="1" stop-color="#fff7ed"/>
    </linearGradient>
    <linearGradient id="lung" x1="0" y1="0" x2="1" y2="1">
      <stop offset="0" stop-color="#bae6fd"/>
      <stop offset="1" stop-color="#38bdf8"/>
    </linearGradient>
    <filter id="soft" x="-20%" y="-20%" width="140%" height="140%">
      <feDropShadow dx="0" dy="18" stdDeviation="22" flood-color="#0f172a" flood-opacity="0.16"/>
    </filter>
  </defs>
  <rect width="960" height="560" rx="48" fill="url(#bg)"/>
  <circle cx="160" cy="126" r="70" fill="#10b981" opacity="0.12"/>
  <circle cx="800" cy="430" r="118" fill="#f97316" opacity="0.10"/>
  <g filter="url(#soft)">
    <rect x="254" y="78" width="452" height="404" rx="46" fill="#ffffff" opacity="0.92"/>
  </g>
  <path d="M480 142v142" stroke="#334155" stroke-width="20" stroke-linecap="round"/>
  <path d="M480 204c-62 0-108 54-108 136 0 52 22 92 58 92 44 0 70-70 70-160v-68z" fill="url(#lung)" stroke="#0f766e" stroke-width="8"/>
  <path d="M480 204c62 0 108 54 108 136 0 52-22 92-58 92-44 0-70-70-70-160v-68z" fill="url(#lung)" stroke="#0f766e" stroke-width="8"/>
  <path d="M480 286c-28-36-84-18-84 28 0 42 52 72 84 104 32-32 84-62 84-104 0-46-56-64-84-28z" fill="#fb7185" stroke="#be123c" stroke-width="8"/>
  <g fill="#0f172a" font-family="Arial, sans-serif" font-weight="800">
    <text x="314" y="116" font-size="34">Body &amp; Health</text>
    <text x="336" y="462" font-size="24" fill="#475569">Observe · Explain · Choose safe habits</text>
  </g>
</svg>
